<?xml version="1.0" encoding="UTF-8" standalone="no"?>
<svg
   xmlns:dc="http://purl.org/dc/elements/1.1/"
   xmlns:cc="http://creativecommons.org/ns#"
   xmlns:rdf="http://www.w3.org/1999/02/22-rdf-syntax-ns#"
   xmlns:svg="http://www.w3.org/2000/svg"
   xmlns="http://www.w3.org/2000/svg"
   xmlns:sodipodi="http://sodipodi.sourceforge.net/DTD/sodipodi-0.dtd"
   xmlns:inkscape="http://www.inkscape.org/namespaces/inkscape"
   data-name="Layer 1"
   viewBox="0 0 100 125"
   x="0px"
   y="0px"
   id="svg2"
   version="1.1"
   inkscape:version="0.91 r13725"
   sodipodi:docname="noun_1235506_cc.svg">
  <metadata
     id="metadata22">
    <rdf:RDF>
      <cc:Work
         rdf:about="">
        <dc:format>image/svg+xml</dc:format>
        <dc:type
           rdf:resource="http://purl.org/dc/dcmitype/StillImage" />
      </cc:Work>
    </rdf:RDF>
  </metadata>
  <defs
     id="defs20" />
  <sodipodi:namedview
     pagecolor="#ffffff"
     bordercolor="#666666"
     borderopacity="1"
     objecttolerance="10"
     gridtolerance="10"
     guidetolerance="10"
     inkscape:pageopacity="0"
     inkscape:pageshadow="2"
     inkscape:window-width="1393"
     inkscape:window-height="833"
     id="namedview18"
     showgrid="false"
     inkscape:zoom="1.888"
     inkscape:cx="50"
     inkscape:cy="62.5"
     inkscape:window-x="0"
     inkscape:window-y="0"
     inkscape:window-maximized="0"
     inkscape:current-layer="svg2" />
  <title
     id="title4">144all</title>
  <path
     d="M65,57.92A15.5,15.5,0,0,0,78.71,35.2L67.21,13.37a2.5,2.5,0,0,0-4.42,0L51.29,35.2A15.5,15.5,0,0,0,65,57.92ZM55.71,37.53,65,19.9l9.29,17.63a10.5,10.5,0,1,1-18.58,0Z"
     id="path6" />
  <path
     d="M25.27,31.92A9.76,9.76,0,0,0,33.9,17.61L27.48,5.41a2.5,2.5,0,0,0-4.42,0l-6.43,12.2a9.76,9.76,0,0,0,8.64,14.32Zm-4.21-12,4.21-8,4.21,8a4.76,4.76,0,1,1-8.43,0Z"
     id="path8" />
  <path
     d="M9.9,86.55a13.58,13.58,0,0,1,3.91,3.52c2.27,2.61,5.1,5.86,10.58,5.86S32.71,92.68,35,90.07s3.75-4.14,6.81-4.14,4.51,1.5,6.81,4.14,5.1,5.86,10.59,5.86,8.32-3.25,10.59-5.86,3.75-4.14,6.81-4.14,4.51,1.5,6.82,4.14a20.93,20.93,0,0,0,4.21,4,2.5,2.5,0,0,0,2.75-4.17,17,17,0,0,1-3.19-3.1c-2.27-2.61-5.1-5.86-10.59-5.86S68.28,84.17,66,86.78s-3.75,4.14-6.82,4.14-4.51-1.5-6.81-4.14-5.1-5.86-10.59-5.86-8.31,3.25-10.59,5.86-3.75,4.14-6.81,4.14-4.51-1.5-6.81-4.14a17.78,17.78,0,0,0-5.48-4.73,2.5,2.5,0,0,0-2.2,4.49Z"
     id="path10" />
  <path
     d="M8.76,66.2A2.5,2.5,0,0,0,9.9,69.55a13.57,13.57,0,0,1,3.91,3.52c2.27,2.61,5.1,5.86,10.58,5.86S32.71,75.68,35,73.07s3.75-4.14,6.81-4.14,4.51,1.5,6.81,4.14,5.1,5.86,10.59,5.86,8.32-3.25,10.59-5.86,3.75-4.14,6.81-4.14,4.51,1.5,6.82,4.14a20.9,20.9,0,0,0,4.21,4,2.5,2.5,0,1,0,2.75-4.17,17,17,0,0,1-3.19-3.1c-2.27-2.61-5.1-5.86-10.59-5.86S68.28,67.17,66,69.78s-3.75,4.14-6.82,4.14-4.51-1.5-6.81-4.14-5.1-5.86-10.59-5.86-8.32,3.25-10.59,5.86-3.75,4.14-6.81,4.14-4.51-1.5-6.81-4.14a17.78,17.78,0,0,0-5.48-4.73A2.5,2.5,0,0,0,8.76,66.2Z"
     id="path12" />
</svg>
